<svg xmlns="http://www.w3.org/2000/svg" xmlns:xlink="http://www.w3.org/1999/xlink" width="500" zoomAndPan="magnify" viewBox="0 0 375 374.999991" height="500" preserveAspectRatio="xMidYMid meet" version="1.0"><defs><g/></defs><g fill="#000000" fill-opacity="1"><g transform="translate(17.471855, 207.277938)"><g><path d="M 45.484375 0 L 41.15625 0 L 41.15625 -15.25 L 9.171875 -15.25 L 9.171875 0 L 4.859375 0 L 4.859375 -34.828125 L 9.171875 -34.828125 L 9.171875 -19.578125 L 41.15625 -19.578125 L 41.15625 -34.828125 L 45.484375 -34.828125 Z M 45.484375 0 "/></g></g></g><g fill="#000000" fill-opacity="1"><g transform="translate(75.275865, 207.277938)"><g><path d="M 50.09375 0 L 44.875 0 L 39.5625 -7.875 L 11.25 -7.875 L 5.953125 0 L 0.734375 0 L 24.265625 -34.828125 L 26.546875 -34.828125 Z M 36.640625 -12.1875 L 25.40625 -28.796875 L 14.1875 -12.1875 Z M 36.640625 -12.1875 "/></g></g></g><g fill="#000000" fill-opacity="1"><g transform="translate(190.183038, 207.277938)"><g><path d="M 37.5 0 L 11.5625 0 C 9.375 0 7.503906 -0.769531 5.953125 -2.3125 C 4.410156 -3.863281 3.640625 -5.734375 3.640625 -7.921875 L 7.96875 -7.921875 C 7.96875 -6.929688 8.316406 -6.082031 9.015625 -5.375 C 9.722656 -4.675781 10.570312 -4.328125 11.5625 -4.328125 L 37.5 -4.328125 C 38.476562 -4.328125 39.320312 -4.675781 40.03125 -5.375 C 40.738281 -6.082031 41.09375 -6.929688 41.09375 -7.921875 L 41.09375 -11.65625 C 41.09375 -12.644531 40.738281 -13.488281 40.03125 -14.1875 C 39.320312 -14.894531 38.476562 -15.25 37.5 -15.25 L 11.5625 -15.25 C 9.375 -15.25 7.503906 -16.019531 5.953125 -17.5625 C 4.410156 -19.113281 3.640625 -20.984375 3.640625 -23.171875 L 3.640625 -26.90625 C 3.640625 -29.09375 4.410156 -30.957031 5.953125 -32.5 C 7.503906 -34.050781 9.375 -34.828125 11.5625 -34.828125 L 37.5 -34.828125 C 39.6875 -34.828125 41.550781 -34.050781 43.09375 -32.5 C 44.632812 -30.957031 45.40625 -29.09375 45.40625 -26.90625 L 41.09375 -26.90625 C 41.09375 -27.894531 40.738281 -28.738281 40.03125 -29.4375 C 39.320312 -30.144531 38.476562 -30.5 37.5 -30.5 L 11.5625 -30.5 C 10.570312 -30.5 9.722656 -30.144531 9.015625 -29.4375 C 8.316406 -28.738281 7.96875 -27.894531 7.96875 -26.90625 L 7.96875 -23.171875 C 7.96875 -22.179688 8.316406 -21.332031 9.015625 -20.625 C 9.722656 -19.925781 10.570312 -19.578125 11.5625 -19.578125 L 37.5 -19.578125 C 39.6875 -19.578125 41.550781 -18.800781 43.09375 -17.25 C 44.632812 -15.707031 45.40625 -13.84375 45.40625 -11.65625 L 45.40625 -7.921875 C 45.40625 -5.734375 44.632812 -3.863281 43.09375 -2.3125 C 41.550781 -0.769531 39.6875 0 37.5 0 Z M 37.5 0 "/></g></g></g><g fill="#000000" fill-opacity="1"><g transform="translate(246.699929, 207.277938)"><g><path d="M 45.484375 0 L 41.15625 0 L 41.15625 -15.25 L 9.171875 -15.25 L 9.171875 0 L 4.859375 0 L 4.859375 -34.828125 L 9.171875 -34.828125 L 9.171875 -19.578125 L 41.15625 -19.578125 L 41.15625 -34.828125 L 45.484375 -34.828125 Z M 45.484375 0 "/></g></g></g><g fill="#000000" fill-opacity="1"><g transform="translate(304.503939, 207.277938)"><g><path d="M 9.171875 0 L 9.171875 -34.828125 L 4.859375 -34.828125 L 4.859375 0 Z M 9.171875 0 "/></g></g></g><g fill="#000000" fill-opacity="1"><g transform="translate(326.001763, 207.277938)"><g><path d="M 22.203125 0 L 17.875 0 L 17.875 -30.5 L 0.734375 -30.5 L 0.734375 -34.828125 L 39.34375 -34.828125 L 39.34375 -30.5 L 22.203125 -30.5 Z M 22.203125 0 "/></g></g></g><g fill="#000000" fill-opacity="1"><g transform="translate(140.813195, 208.204067)"><g><path d="M 46.1875 -57.125 C 49.0625 -54.6875 49.738281 -51.554688 48.21875 -47.734375 C 46.695312 -43.921875 43.660156 -39.640625 39.109375 -34.890625 C 34.554688 -30.140625 26.210938 -24.53125 14.078125 -18.0625 C 12.953125 -17.414062 11.828125 -16.726562 10.703125 -16 C 10.617188 -15.945312 10.554688 -15.847656 10.515625 -15.703125 C 10.472656 -15.566406 10.4375 -15.441406 10.40625 -15.328125 C 10.4375 -15.160156 10.5 -15.039062 10.59375 -14.96875 C 10.695312 -14.894531 10.816406 -14.859375 10.953125 -14.859375 C 13.429688 -14.722656 15.878906 -14.328125 18.296875 -13.671875 C 25.253906 -11.828125 30.703125 -7.585938 34.640625 -0.953125 C 39.410156 7.078125 41.253906 15.890625 40.171875 25.484375 C 40.035156 26.609375 39.875 27.695312 39.6875 28.75 C 39.644531 29.09375 39.597656 29.421875 39.546875 29.734375 C 39.472656 30.203125 39.257812 30.578125 38.90625 30.859375 C 38.769531 30.972656 38.613281 31.054688 38.4375 31.109375 C 38.269531 31.171875 38.101562 31.144531 37.9375 31.03125 C 37.769531 30.945312 37.65625 30.820312 37.59375 30.65625 C 37.539062 30.488281 37.539062 30.304688 37.59375 30.109375 C 37.90625 28.316406 38.085938 26.519531 38.140625 24.71875 C 38.367188 19.539062 37.765625 14.691406 36.328125 10.171875 C 34.890625 5.648438 32.6875 1.445312 29.71875 -2.4375 C 27.65625 -5.101562 25.304688 -7.191406 22.671875 -8.703125 C 20.035156 -10.222656 17.171875 -11.257812 14.078125 -11.8125 C 13.066406 -12.019531 12.050781 -12.160156 11.03125 -12.234375 C 10.414062 -12.304688 10.082031 -11.988281 10.03125 -11.28125 C 9.96875 -10.4375 9.925781 -9.582031 9.90625 -8.71875 C 9.851562 -4.550781 9.804688 -0.40625 9.765625 3.71875 C 9.691406 9.03125 9.625 14.34375 9.5625 19.65625 C 9.5625 20.125 9.507812 20.585938 9.40625 21.046875 C 9.226562 21.523438 8.898438 21.773438 8.421875 21.796875 C 8.171875 21.828125 7.976562 21.75 7.84375 21.5625 C 7.71875 21.382812 7.644531 21.171875 7.625 20.921875 C 7.550781 20.078125 7.515625 19.222656 7.515625 18.359375 C 7.441406 10.484375 7.382812 2.628906 7.34375 -5.203125 C 7.34375 -6.046875 7.34375 -6.878906 7.34375 -7.703125 C 7.34375 -8.097656 7.34375 -8.488281 7.34375 -8.875 C 7.34375 -9.550781 7.34375 -10.210938 7.34375 -10.859375 C 7.34375 -11.535156 7.242188 -11.96875 7.046875 -12.15625 C 6.847656 -12.351562 6.421875 -12.4375 5.765625 -12.40625 C 4.304688 -12.382812 2.890625 -12.066406 1.515625 -11.453125 C 0.222656 -10.859375 -1.097656 -10.320312 -2.453125 -9.84375 C -2.472656 -9.820312 -2.5 -9.8125 -2.53125 -9.8125 C -3.257812 -9.5 -4.019531 -9.414062 -4.8125 -9.5625 C -5.0625 -9.613281 -5.234375 -9.78125 -5.328125 -10.0625 C -5.429688 -10.34375 -5.410156 -10.609375 -5.265625 -10.859375 C -5.078125 -11.253906 -4.816406 -11.570312 -4.484375 -11.8125 C -4.160156 -12.050781 -3.832031 -12.25 -3.5 -12.40625 C -1.863281 -13.28125 -0.148438 -13.84375 1.640625 -14.09375 C 2.347656 -14.207031 3.03125 -14.40625 3.6875 -14.6875 C 4.34375 -14.96875 4.984375 -15.273438 5.609375 -15.609375 C 5.890625 -15.753906 6.15625 -15.882812 6.40625 -16 C 7.070312 -16.363281 7.40625 -16.96875 7.40625 -17.8125 C 7.476562 -20.394531 7.550781 -22.960938 7.625 -25.515625 C 7.757812 -29.285156 7.847656 -33.0625 7.890625 -36.84375 C 7.941406 -40.625 7.851562 -44.394531 7.625 -48.15625 C 7.601562 -48.632812 7.648438 -49.097656 7.765625 -49.546875 C 7.835938 -49.828125 8.03125 -50.070312 8.34375 -50.28125 C 8.65625 -50.488281 8.941406 -50.566406 9.203125 -50.515625 C 9.640625 -50.378906 9.898438 -50.039062 9.984375 -49.5 C 10.015625 -49.3125 10.046875 -49.113281 10.078125 -48.90625 C 10.210938 -48.269531 10.304688 -47.625 10.359375 -46.96875 C 10.671875 -42.988281 10.753906 -38.988281 10.609375 -34.96875 C 10.503906 -31.28125 10.421875 -27.585938 10.359375 -23.890625 C 10.335938 -22.628906 10.3125 -21.363281 10.28125 -20.09375 C 10.28125 -19.8125 10.296875 -19.488281 10.328125 -19.125 C 10.347656 -18.894531 10.359375 -18.65625 10.359375 -18.40625 C 10.585938 -18.488281 10.785156 -18.539062 10.953125 -18.5625 C 11.234375 -18.65625 11.457031 -18.757812 11.625 -18.875 C 15.675781 -21.144531 19.625 -23.582031 23.46875 -26.1875 C 27.320312 -28.800781 31.03125 -31.6875 34.59375 -34.84375 C 37.007812 -36.957031 39.289062 -39.242188 41.4375 -41.703125 C 42.613281 -43.085938 43.664062 -44.597656 44.59375 -46.234375 C 45.019531 -47.035156 45.382812 -47.890625 45.6875 -48.796875 C 46.082031 -49.992188 46.140625 -51.101562 45.859375 -52.125 C 45.578125 -53.15625 45.015625 -54.09375 44.171875 -54.9375 C 43.128906 -55.945312 41.953125 -56.695312 40.640625 -57.1875 C 38.222656 -58.132812 35.726562 -58.695312 33.15625 -58.875 C 28.132812 -59.226562 23.21875 -58.882812 18.40625 -57.84375 C 13.601562 -56.800781 8.898438 -55.191406 4.296875 -53.015625 C 3.421875 -52.585938 2.59375 -52.109375 1.8125 -51.578125 C 0.9375 -51.015625 0.148438 -50.359375 -0.546875 -49.609375 C -1.253906 -48.859375 -1.832031 -47.96875 -2.28125 -46.9375 C -2.445312 -46.507812 -2.695312 -46.144531 -3.03125 -45.84375 C -3.207031 -45.675781 -3.398438 -45.578125 -3.609375 -45.546875 C -3.816406 -45.515625 -4.019531 -45.582031 -4.21875 -45.75 C -4.351562 -45.863281 -4.429688 -46.007812 -4.453125 -46.1875 C -4.484375 -46.375 -4.488281 -46.566406 -4.46875 -46.765625 C -4.320312 -47.523438 -4.015625 -48.203125 -3.546875 -48.796875 C -2.492188 -50.316406 -1.242188 -51.582031 0.203125 -52.59375 C 1.804688 -53.738281 3.484375 -54.6875 5.234375 -55.4375 C 9.773438 -57.519531 14.40625 -59.066406 19.125 -60.078125 C 23.84375 -61.097656 28.679688 -61.46875 33.640625 -61.1875 C 36.523438 -61.050781 39.359375 -60.488281 42.140625 -59.5 C 43.597656 -58.96875 44.945312 -58.175781 46.1875 -57.125 Z M 46.1875 -57.125 "/></g></g></g></svg>